<?xml version="1.0" encoding="UTF-8" standalone="no"?>
<!DOCTYPE svg PUBLIC "-//W3C//DTD SVG 1.1//EN" "http://www.w3.org/Graphics/SVG/1.1/DTD/svg11.dtd">
<svg width="100%" height="100%" viewBox="0 0 986 1091" version="1.1" xmlns="http://www.w3.org/2000/svg" xmlns:xlink="http://www.w3.org/1999/xlink" xml:space="preserve" xmlns:serif="http://www.serif.com/" style="fill-rule:evenodd;clip-rule:evenodd;stroke-linejoin:round;stroke-miterlimit:2;">
    <g transform="matrix(1,0,0,1,-319.899,-995.216)">
        <g transform="matrix(3.09126,0,0,3.09126,-3011.46,-3089.86)">
            <g transform="matrix(0.755079,0,0,0.755079,1044.09,1199.46)">
                <circle cx="247.51" cy="364.661" r="203.042" style="fill:rgb(90,102,142);"/>
            </g>
            <g transform="matrix(0.030747,0,0,0.030747,1099.47,1337.83)">
                <circle cx="247.51" cy="364.661" r="203.042" style="fill:rgb(90,102,142);"/>
            </g>
            <g transform="matrix(0.0399897,0,0,0.0399897,1378.5,1315.03)">
                <circle cx="247.51" cy="364.661" r="203.042" style="fill:rgb(90,102,142);"/>
            </g>
            <g transform="matrix(0.0608187,0,0,0.0608187,1356.89,1345.45)">
                <circle cx="247.51" cy="364.661" r="203.042" style="fill:rgb(90,102,142);"/>
            </g>
            <g transform="matrix(0.419933,0,0,0.419933,1114.48,1401.87)">
                <text x="136.671px" y="648.098px" style="font-family:'Roboto-Light', 'Roboto';font-weight:300;font-size:67.952px;fill:rgb(133,145,183);">No Entries</text>
            </g>
            <g transform="matrix(0.88356,-0.140024,0.118188,0.745772,979.724,1244.67)">
                <path d="M273.149,254.64C273.149,241.183 263.927,230.258 252.568,230.258L156.163,230.258C144.804,230.258 135.583,241.183 135.583,254.64L135.583,439.285C135.583,452.743 144.804,463.668 156.163,463.668L252.568,463.668C263.927,463.668 273.149,452.743 273.149,439.285L273.149,254.64Z" style="fill:url(#_Linear1);"/>
            </g>
            <g transform="matrix(0.744843,-0.123906,0.100309,0.602995,894.795,1286.94)">
                <path d="M400.837,236.478C400.837,234.277 399.39,232.49 397.608,232.49L323.567,232.49C321.785,232.49 320.338,234.277 320.338,236.478L320.338,255.367C320.338,257.568 321.785,259.355 323.567,259.355L397.608,259.355C399.39,259.355 400.837,257.568 400.837,255.367L400.837,236.478Z" style="fill:rgb(63,77,119);"/>
            </g>
            <g transform="matrix(0.355943,-0.117806,0.117806,0.355943,1043.34,1360.16)">
                <path d="M351.946,127.616C368.835,127.616 382.547,141.328 382.547,158.217C382.547,175.106 368.835,188.818 351.946,188.818C335.057,188.818 321.345,175.106 321.345,158.217C321.345,141.328 335.057,127.616 351.946,127.616ZM351.946,140.93C361.487,140.93 369.233,148.676 369.233,158.217C369.233,167.758 361.487,175.504 351.946,175.504C342.405,175.504 334.659,167.758 334.659,158.217C334.659,148.676 342.405,140.93 351.946,140.93Z" style="fill:rgb(63,77,119);"/>
            </g>
            <g transform="matrix(0.883292,0.141703,-0.119605,0.745546,1118.43,1193.06)">
                <path d="M273.149,254.64C273.149,241.183 263.927,230.258 252.568,230.258L156.163,230.258C144.804,230.258 135.583,241.183 135.583,254.64L135.583,439.285C135.583,452.743 144.804,463.668 156.163,463.668L252.568,463.668C263.927,463.668 273.149,452.743 273.149,439.285L273.149,254.64Z" style="fill:url(#_Linear2);"/>
            </g>
            <g transform="matrix(0.746052,0.116404,-0.0942356,0.603974,1027.29,1205.17)">
                <path d="M400.837,236.478C400.837,234.277 399.39,232.49 397.608,232.49L323.567,232.49C321.785,232.49 320.338,234.277 320.338,236.478L320.338,255.367C320.338,257.568 321.785,259.355 323.567,259.355L397.608,259.355C399.39,259.355 400.837,257.568 400.837,255.367L400.837,236.478Z" style="fill:rgb(63,77,119);"/>
            </g>
            <g transform="matrix(0.374932,0,0,0.374932,1145.3,1321.36)">
                <path d="M351.946,127.616C368.835,127.616 382.547,141.328 382.547,158.217C382.547,175.106 368.835,188.818 351.946,188.818C335.057,188.818 321.345,175.106 321.345,158.217C321.345,141.328 335.057,127.616 351.946,127.616ZM351.946,140.93C361.487,140.93 369.233,148.676 369.233,158.217C369.233,167.758 361.487,175.504 351.946,175.504C342.405,175.504 334.659,167.758 334.659,158.217C334.659,148.676 342.405,140.93 351.946,140.93Z" style="fill:rgb(63,77,119);"/>
            </g>
        </g>
    </g>
    <defs>
        <linearGradient id="_Linear1" x1="0" y1="0" x2="1" y2="0" gradientUnits="userSpaceOnUse" gradientTransform="matrix(2.21282,229.311,-193.551,2.62166,177.015,232.197)"><stop offset="0" style="stop-color:rgb(109,120,154);stop-opacity:1"/><stop offset="1" style="stop-color:rgb(82,93,130);stop-opacity:1"/></linearGradient>
        <linearGradient id="_Linear2" x1="0" y1="0" x2="1" y2="0" gradientUnits="userSpaceOnUse" gradientTransform="matrix(-23.9275,233.258,-196.882,-28.3483,226.63,232.218)"><stop offset="0" style="stop-color:rgb(143,153,182);stop-opacity:1"/><stop offset="1" style="stop-color:rgb(93,106,143);stop-opacity:1"/></linearGradient>
    </defs>
</svg>
