<?xml version="1.0" encoding="UTF-8" standalone="no"?>
<!DOCTYPE svg PUBLIC "-//W3C//DTD SVG 1.1//EN" "http://www.w3.org/Graphics/SVG/1.1/DTD/svg11.dtd">
<svg width="100%" height="100%" viewBox="0 0 986 1091" version="1.1" xmlns="http://www.w3.org/2000/svg" xmlns:xlink="http://www.w3.org/1999/xlink" xml:space="preserve" xmlns:serif="http://www.serif.com/" style="fill-rule:evenodd;clip-rule:evenodd;stroke-linejoin:round;stroke-miterlimit:2;">
    <g transform="matrix(1,0,0,1,-1907.44,-995.216)">
        <g transform="matrix(1.29812,0,0,1.29812,2021.25,1243.68)">
            <text x="136.671px" y="648.098px" style="font-family:'Roboto-Light', 'Roboto';font-weight:300;font-size:67.952px;fill:rgb(175,176,204);">No Entries</text>
        </g>
        <g transform="matrix(2.33415,0,0,2.33415,1803.65,617.974)">
            <circle cx="247.51" cy="364.661" r="203.042" style="fill:rgb(227,231,243);"/>
        </g>
        <g transform="matrix(0.0950471,0,0,0.0950471,1974.83,1045.71)">
            <circle cx="247.51" cy="364.661" r="203.042" style="fill:rgb(227,231,243);"/>
        </g>
        <g transform="matrix(0.123619,0,0,0.123619,2837.38,975.237)">
            <circle cx="247.51" cy="364.661" r="203.042" style="fill:rgb(227,231,243);"/>
        </g>
        <g transform="matrix(0.188007,0,0,0.188007,2770.6,1069.29)">
            <circle cx="247.51" cy="364.661" r="203.042" style="fill:rgb(227,231,243);"/>
        </g>
        <g transform="matrix(2.73131,-0.432852,0.36535,2.30538,1604.67,757.726)">
            <path d="M273.149,254.64C273.149,241.183 263.927,230.258 252.568,230.258L156.163,230.258C144.804,230.258 135.583,241.183 135.583,254.64L135.583,439.285C135.583,452.743 144.804,463.668 156.163,463.668L252.568,463.668C263.927,463.668 273.149,452.743 273.149,439.285L273.149,254.64Z" style="fill:url(#_Linear1);"/>
        </g>
        <g transform="matrix(2.3025,-0.383025,0.310081,1.86402,1342.13,888.397)">
            <path d="M400.837,236.478C400.837,234.277 399.39,232.49 397.608,232.49L323.567,232.49C321.785,232.49 320.338,234.277 320.338,236.478L320.338,255.367C320.338,257.568 321.785,259.355 323.567,259.355L397.608,259.355C399.39,259.355 400.837,257.568 400.837,255.367L400.837,236.478Z" style="fill:rgb(135,149,189);"/>
        </g>
        <g transform="matrix(1.10031,-0.364168,0.364168,1.10031,1801.32,1114.75)">
            <path d="M351.946,127.616C368.835,127.616 382.547,141.328 382.547,158.217C382.547,175.106 368.835,188.818 351.946,188.818C335.057,188.818 321.345,175.106 321.345,158.217C321.345,141.328 335.057,127.616 351.946,127.616ZM351.946,140.93C361.487,140.93 369.233,148.676 369.233,158.217C369.233,167.758 361.487,175.504 351.946,175.504C342.405,175.504 334.659,167.758 334.659,158.217C334.659,148.676 342.405,140.93 351.946,140.93Z" style="fill:rgb(135,149,189);"/>
        </g>
        <g transform="matrix(2.73049,0.43804,-0.369729,2.30468,2033.44,598.203)">
            <path d="M273.149,254.64C273.149,241.183 263.927,230.258 252.568,230.258L156.163,230.258C144.804,230.258 135.583,241.183 135.583,254.64L135.583,439.285C135.583,452.743 144.804,463.668 156.163,463.668L252.568,463.668C263.927,463.668 273.149,452.743 273.149,439.285L273.149,254.64Z" style="fill:url(#_Linear2);"/>
        </g>
        <g transform="matrix(2.30624,0.359834,-0.291307,1.86704,1751.7,635.638)">
            <path d="M400.837,236.478C400.837,234.277 399.39,232.49 397.608,232.49L323.567,232.49C321.785,232.49 320.338,234.277 320.338,236.478L320.338,255.367C320.338,257.568 321.785,259.355 323.567,259.355L397.608,259.355C399.39,259.355 400.837,257.568 400.837,255.367L400.837,236.478Z" style="fill:rgb(135,149,189);"/>
        </g>
        <g transform="matrix(1.15901,0,0,1.15901,2116.51,994.802)">
            <path d="M351.946,127.616C368.835,127.616 382.547,141.328 382.547,158.217C382.547,175.106 368.835,188.818 351.946,188.818C335.057,188.818 321.345,175.106 321.345,158.217C321.345,141.328 335.057,127.616 351.946,127.616ZM351.946,140.93C361.487,140.93 369.233,148.676 369.233,158.217C369.233,167.758 361.487,175.504 351.946,175.504C342.405,175.504 334.659,167.758 334.659,158.217C334.659,148.676 342.405,140.93 351.946,140.93Z" style="fill:rgb(135,149,189);"/>
        </g>
    </g>
    <defs>
        <linearGradient id="_Linear1" x1="0" y1="0" x2="1" y2="0" gradientUnits="userSpaceOnUse" gradientTransform="matrix(-3.63373,227.561,-192.074,-4.30509,169.394,234.293)"><stop offset="0" style="stop-color:rgb(231,231,240);stop-opacity:1"/><stop offset="1" style="stop-color:rgb(149,153,188);stop-opacity:1"/></linearGradient>
        <linearGradient id="_Linear2" x1="0" y1="0" x2="1" y2="0" gradientUnits="userSpaceOnUse" gradientTransform="matrix(-7.85311,238.456,-201.269,-9.30404,210.556,227.021)"><stop offset="0" style="stop-color:rgb(252,251,254);stop-opacity:1"/><stop offset="1" style="stop-color:rgb(171,174,201);stop-opacity:1"/></linearGradient>
    </defs>
</svg>
