<svg xmlns="http://www.w3.org/2000/svg" version="1.1" xmlns:xlink="http://www.w3.org/1999/xlink" xmlns:svgjs="http://svgjs.com/svgjs" width="100%" height="100%"><svg width="100%" height="100%" viewBox="0 0 12 17" version="1.1" xmlns="http://www.w3.org/2000/svg" xmlns:xlink="http://www.w3.org/1999/xlink" xml:space="preserve" xmlns:serif="http://www.serif.com/" style="fill-rule:evenodd;clip-rule:evenodd;stroke-linejoin:round;stroke-miterlimit:2;">
    <g transform="matrix(1,0,0,1,-2,2.82398e-32)">
        <path d="M2,15.5L2,2C2,0.903 2.903,0 4,0L12,0C13.097,-0 14,0.903 14,2L14,15.5C14,15.775 13.774,16 13.5,16C13.416,16 13.334,15.979 13.26,15.939L8,13.069L2.74,15.939C2.666,15.979 2.584,16 2.5,16C2.226,16 2,15.775 2,15.5ZM8.16,4.1C8.13,4.039 8.068,4 8,4C7.932,4 7.87,4.039 7.84,4.1L7.206,5.385C7.18,5.438 7.13,5.474 7.072,5.483L5.652,5.689C5.565,5.702 5.501,5.777 5.501,5.865C5.501,5.913 5.52,5.959 5.554,5.992L6.58,6.993C6.622,7.034 6.641,7.093 6.631,7.151L6.39,8.565C6.388,8.575 6.388,8.584 6.388,8.594C6.388,8.692 6.468,8.772 6.566,8.772C6.594,8.772 6.623,8.765 6.648,8.752L7.918,8.084C7.97,8.057 8.031,8.057 8.083,8.084L9.353,8.752C9.378,8.765 9.406,8.772 9.434,8.772C9.532,8.772 9.612,8.691 9.612,8.594C9.612,8.584 9.612,8.574 9.61,8.565L9.368,7.15C9.358,7.092 9.376,7.033 9.418,6.992L10.446,5.991C10.48,5.958 10.499,5.912 10.499,5.864C10.499,5.776 10.435,5.701 10.348,5.688L8.928,5.482C8.87,5.473 8.82,5.437 8.794,5.384L8.16,4.1Z" style="fill:rgb(98,103,220);"></path>
    </g>
</svg><style>@media (prefers-color-scheme: light) { :root { filter: none; } }
</style></svg>